<svg xmlns="http://www.w3.org/2000/svg" viewBox="0 0 400 460">
  <defs>
    <linearGradient id="bg" x1="0%" y1="0%" x2="100%" y2="100%">
      <stop offset="0%" stop-color="#B4CAD8"/>
      <stop offset="48%" stop-color="#D8B4CC"/>
      <stop offset="100%" stop-color="#EAB2A2"/>
    </linearGradient>
    <radialGradient id="h" cx="50%" cy="44%" r="55%">
      <stop offset="0%" stop-color="#FFD870"/>
      <stop offset="32%" stop-color="#F09A6A"/>
      <stop offset="68%" stop-color="#E07898"/>
      <stop offset="100%" stop-color="#C068A0"/>
    </radialGradient>
    <radialGradient id="bpk" cx="70%" cy="32%" r="68%">
      <stop offset="0%" stop-color="#E89898" stop-opacity="0.8"/>
      <stop offset="100%" stop-color="#E89898" stop-opacity="0"/>
    </radialGradient>
    <radialGradient id="bbl" cx="24%" cy="54%" r="65%">
      <stop offset="0%" stop-color="#80A0D8" stop-opacity="0.78"/>
      <stop offset="100%" stop-color="#80A0D8" stop-opacity="0"/>
    </radialGradient>
    <radialGradient id="bpu" cx="46%" cy="68%" r="52%">
      <stop offset="0%" stop-color="#9070B8" stop-opacity="0.4"/>
      <stop offset="100%" stop-color="#9070B8" stop-opacity="0"/>
    </radialGradient>
    <filter id="glow">
      <feGaussianBlur stdDeviation="12" result="b"/>
      <feMerge><feMergeNode in="b"/><feMergeNode in="SourceGraphic"/></feMerge>
    </filter>
  </defs>
  <rect width="400" height="460" fill="url(#bg)"/>
  <ellipse cx="285" cy="452" rx="75" ry="13" fill="#40C8E8" opacity="0.48" filter="url(#glow)"/>
  <path d="M38 480 Q38 308 200 283 Q362 308 362 480Z" fill="#D8A2B8"/>
  <path d="M38 480 Q38 308 200 283 Q362 308 362 480Z" fill="url(#bbl)"/>
  <path d="M38 480 Q38 308 200 283 Q362 308 362 480Z" fill="url(#bpk)"/>
  <path d="M38 480 Q38 308 200 283 Q362 308 362 480Z" fill="url(#bpu)"/>
  <circle cx="200" cy="158" r="102" fill="#E8A2A2"/>
  <circle cx="200" cy="158" r="102" fill="url(#h)"/>
</svg>
